<svg width="44" height="45" viewBox="0 0 44 45" fill="none" xmlns="http://www.w3.org/2000/svg">
<path fill-rule="evenodd" clip-rule="evenodd" d="M22 44.4883C34.1503 44.4883 44 34.6385 44 22.4883C44 10.338 34.1503 0.488281 22 0.488281C9.84974 0.488281 0 10.338 0 22.4883C0 34.6385 9.84974 44.4883 22 44.4883ZM22 42.4883C33.0457 42.4883 42 33.534 42 22.4883C42 11.4426 33.0457 2.48828 22 2.48828C10.9543 2.48828 2 11.4426 2 22.4883C2 33.534 10.9543 42.4883 22 42.4883Z" fill="#4A4A4A"/>
<g clip-path="url(#clip0)">
<path d="M30.317 14.8583C28.761 14.1441 27.119 13.6349 25.432 13.3433C25.4166 13.3403 25.4007 13.3423 25.3865 13.3489C25.3723 13.3556 25.3605 13.3665 25.353 13.3803C25.143 13.7553 24.909 14.2443 24.745 14.6303C22.9264 14.3541 21.0766 14.3541 19.258 14.6303C19.0755 14.2026 18.8695 13.7853 18.641 13.3803C18.6331 13.3669 18.6213 13.3561 18.6072 13.3495C18.5931 13.3429 18.5774 13.3407 18.562 13.3433C16.8748 13.6343 15.2327 14.1435 13.677 14.8583C13.6638 14.8638 13.6527 14.8732 13.645 14.8853C10.533 19.5343 9.67999 24.0683 10.099 28.5453C10.1 28.5564 10.1033 28.5672 10.1086 28.577C10.1139 28.5868 10.1212 28.5954 10.13 28.6023C11.9416 29.9445 13.9681 30.9691 16.123 31.6323C16.1382 31.6367 16.1543 31.6364 16.1694 31.6314C16.1844 31.6264 16.1975 31.6169 16.207 31.6043C16.669 30.9743 17.081 30.3093 17.433 29.6103C17.4379 29.6007 17.4407 29.5903 17.4413 29.5795C17.4419 29.5688 17.4402 29.5581 17.4363 29.5481C17.4324 29.5381 17.4265 29.529 17.4188 29.5214C17.4112 29.5139 17.4021 29.508 17.392 29.5043C16.7454 29.2569 16.1195 28.9586 15.52 28.6123C15.509 28.6059 15.4998 28.597 15.4931 28.5862C15.4864 28.5754 15.4825 28.5631 15.4817 28.5504C15.4809 28.5378 15.4832 28.5251 15.4885 28.5136C15.4938 28.502 15.5019 28.492 15.512 28.4843C15.6382 28.3898 15.7623 28.2925 15.884 28.1923C15.8946 28.1836 15.9075 28.1781 15.9211 28.1764C15.9347 28.1746 15.9485 28.1767 15.961 28.1823C19.889 29.9753 24.141 29.9753 28.023 28.1823C28.0356 28.1765 28.0496 28.1743 28.0634 28.1761C28.0772 28.1778 28.0902 28.1835 28.101 28.1923C28.221 28.2903 28.347 28.3903 28.474 28.4843C28.484 28.4918 28.492 28.5017 28.4973 28.513C28.5026 28.5244 28.5051 28.5369 28.5045 28.5494C28.5039 28.5619 28.5003 28.5741 28.4939 28.5848C28.4876 28.5956 28.4787 28.6047 28.468 28.6113C27.8699 28.9608 27.2433 29.2592 26.595 29.5033C26.5849 29.5072 26.5757 29.5131 26.5681 29.5207C26.5604 29.5284 26.5545 29.5375 26.5506 29.5476C26.5468 29.5577 26.5451 29.5685 26.5456 29.5793C26.5462 29.5901 26.5491 29.6007 26.554 29.6103C26.914 30.3083 27.326 30.9723 27.779 31.6033C27.7883 31.6161 27.8014 31.6258 27.8165 31.6308C27.8316 31.6358 27.8478 31.636 27.863 31.6313C30.0215 30.9701 32.0513 29.9454 33.865 28.6013C33.8738 28.595 33.8812 28.587 33.8867 28.5777C33.8923 28.5684 33.8957 28.558 33.897 28.5473C34.397 23.3703 33.059 18.8733 30.348 14.8873C30.3417 14.8738 30.3306 14.8632 30.317 14.8573V14.8583ZM18.02 25.8183C16.837 25.8183 15.863 24.7333 15.863 23.3993C15.863 22.0663 16.819 20.9803 18.02 20.9803C19.23 20.9803 20.196 22.0763 20.177 23.4003C20.177 24.7333 19.221 25.8183 18.02 25.8183ZM25.995 25.8183C24.812 25.8183 23.838 24.7333 23.838 23.3993C23.838 22.0663 24.793 20.9803 25.995 20.9803C27.205 20.9803 28.171 22.0763 28.152 23.4003C28.152 24.7333 27.206 25.8183 25.995 25.8183Z" fill="#4A4A4A"/>
</g>
<defs>
<clipPath id="clip0">
<rect width="24" height="24" fill="white" transform="translate(10 10.4883)"/>
</clipPath>
</defs>
</svg>
