<svg width="44" height="44" viewBox="0 0 44 44" fill="none" xmlns="http://www.w3.org/2000/svg">
<path fill-rule="evenodd" clip-rule="evenodd" d="M22 44C34.1503 44 44 34.1503 44 22C44 9.84974 34.1503 0 22 0C9.84974 0 0 9.84974 0 22C0 34.1503 9.84974 44 22 44ZM22 42C33.0457 42 42 33.0457 42 22C42 10.9543 33.0457 2 22 2C10.9543 2 2 10.9543 2 22C2 33.0457 10.9543 42 22 42Z" fill="#4A4A4A"/>
<path d="M22.077 13C17.149 13 13 16.96 13 21.843V31L22.075 30.99C27.003 30.99 31 26.88 31 21.997C31 17.113 27 13 22.077 13ZM25.997 25.859C25.1973 26.6172 24.1906 27.121 23.1043 27.3067C22.0181 27.4923 20.9012 27.3515 19.895 26.902L16.3 27.707L17.301 24.515C16.8443 23.6816 16.6141 22.743 16.6334 21.7928C16.6527 20.8427 16.9208 19.9142 17.411 19.1C17.9056 18.2821 18.603 17.6059 19.4357 17.1367C20.2684 16.6675 21.2082 16.4213 22.164 16.422V16.423H22.17C23.2701 16.421 24.3459 16.747 25.2599 17.3594C26.1738 17.9718 26.8844 18.8428 27.301 19.861C27.7124 20.8759 27.808 21.9913 27.5753 23.0614C27.3427 24.1315 26.7926 25.1065 25.997 25.859Z" fill="#4A4A4A"/>
</svg>
