<svg width="44" height="45" viewBox="0 0 44 45" fill="none" xmlns="http://www.w3.org/2000/svg">
<path fill-rule="evenodd" clip-rule="evenodd" d="M22 44.4883C34.1503 44.4883 44 34.6385 44 22.4883C44 10.338 34.1503 0.488281 22 0.488281C9.84974 0.488281 0 10.338 0 22.4883C0 34.6385 9.84974 44.4883 22 44.4883ZM22 42.4883C33.0457 42.4883 42 33.534 42 22.4883C42 11.4426 33.0457 2.48828 22 2.48828C10.9543 2.48828 2 11.4426 2 22.4883C2 33.534 10.9543 42.4883 22 42.4883Z" fill="#4A4A4A"/>
<path d="M22.0013 10.4883C15.3706 10.4855 10 15.9994 10 22.805C10 28.1867 13.3596 32.7614 18.0384 34.4415C18.6685 34.604 18.572 34.144 18.572 33.83V31.6955C14.9335 32.1334 14.7861 29.6602 14.5421 29.2471C14.0487 28.3822 12.8824 28.1619 13.2309 27.7488C14.0594 27.3109 14.904 27.8589 15.8827 29.3435C16.5905 30.4203 17.9714 30.2386 18.6712 30.0595C18.824 29.4123 19.1512 28.8339 19.6016 28.385C15.8318 27.6909 14.2605 25.3278 14.2605 22.5186C14.2605 21.1553 14.6976 19.9021 15.5556 18.8913C15.0086 17.225 15.6065 15.7984 15.687 15.5863C17.2448 15.4431 18.8643 16.732 18.9903 16.8339C19.8751 16.5888 20.8859 16.4594 22.0174 16.4594C23.1543 16.4594 24.1678 16.5943 25.0607 16.8422C25.3636 16.6053 26.8652 15.4982 28.313 15.6331C28.3908 15.8452 28.9753 17.2388 28.4605 18.883C29.3292 19.8966 29.7716 21.1608 29.7716 22.5268C29.7716 25.3416 28.1897 27.7075 24.4091 28.3905C24.7329 28.7176 24.99 29.1077 25.1654 29.5381C25.3408 29.9684 25.431 30.4303 25.4307 30.8968V33.9953C25.4521 34.2432 25.4307 34.4883 25.8329 34.4883C30.5814 32.844 34 28.2363 34 22.8078C34 15.9994 28.6267 10.4883 22.0013 10.4883Z" fill="#4A4A4A"/>
</svg>
