<svg width="225" height="227" viewBox="0 0 225 227" fill="none" xmlns="http://www.w3.org/2000/svg">
<rect width="225" height="227" fill="#BAC2C7"/>
<g clip-path="url(#clip0)">
<rect width="1440" height="1080" transform="translate(-857 -385)" fill="#F9FBFC"/>
<g filter="url(#filter0_d)">
<g clip-path="url(#clip1)">
<rect x="-307" y="-57" width="850" height="724" rx="10" fill="white"/>
<circle cx="187.269" cy="153.791" r="2.97619" fill="#D7DDF6"/>
<g filter="url(#filter1_d)">
<circle cx="112.271" cy="110.512" r="72.0238" fill="#F5F7FD"/>
</g>
<circle cx="42.3644" cy="123.415" r="2.11835" fill="#D7DDF6"/>
<circle cx="92.2416" cy="46.9615" r="6.16247" fill="#D7DDF6"/>
<line x1="62.8105" y1="62.406" x2="62.8105" y2="171.116" stroke="#E8E8E8" stroke-width="5" stroke-linecap="round"/>
<line x1="46.9131" y1="148.488" x2="176.437" y2="148.488" stroke="#E8E8E8" stroke-width="5" stroke-linecap="round"/>
<rect x="71" y="103.488" width="18" height="37" rx="5" fill="white"/>
<rect x="97" y="88.4883" width="18" height="52" rx="5" fill="white"/>
<rect x="122" y="78.4883" width="18" height="62" rx="5" fill="white"/>
<rect x="148" y="63.4883" width="18" height="77" rx="5" fill="white"/>
<path d="M153.49 59.2404C153.116 58.501 152.214 58.2046 151.474 58.5783L139.426 64.6678C138.686 65.0415 138.39 65.9438 138.764 66.6832C139.137 67.4225 140.04 67.719 140.779 67.3453L151.489 61.9323L156.902 72.6421C157.275 73.3815 158.178 73.6779 158.917 73.3042C159.656 72.9306 159.953 72.0283 159.579 71.2889L153.49 59.2404ZM77.0526 130.975C87.1304 127.437 102.975 119.693 117.928 107.918C132.876 96.1459 147.049 80.2533 153.576 60.3852L150.726 59.4488C144.448 78.5568 130.754 93.9985 116.072 105.561C101.394 117.119 85.844 124.709 76.0587 128.145L77.0526 130.975Z" fill="#D7DDF6"/>
<path d="M23.4521 222.536H21.2285L15.5244 213.457V222.536H13.3008V209.739H15.5244L21.2461 218.853V209.739H23.4521V222.536ZM25.4736 217.693C25.4736 216.761 25.6582 215.924 26.0273 215.179C26.3965 214.429 26.915 213.855 27.583 213.457C28.251 213.052 29.0186 212.85 29.8857 212.85C31.1689 212.85 32.209 213.263 33.0059 214.09C33.8086 214.916 34.2422 216.011 34.3066 217.377L34.3154 217.878C34.3154 218.815 34.1338 219.653 33.7705 220.391C33.4131 221.13 32.8975 221.701 32.2236 222.105C31.5557 222.51 30.7822 222.712 29.9033 222.712C28.5615 222.712 27.4863 222.266 26.6777 221.376C25.875 220.479 25.4736 219.287 25.4736 217.799V217.693ZM27.6094 217.878C27.6094 218.856 27.8115 219.624 28.2158 220.18C28.6201 220.731 29.1826 221.007 29.9033 221.007C30.624 221.007 31.1836 220.725 31.582 220.163C31.9863 219.6 32.1885 218.777 32.1885 217.693C32.1885 216.732 31.9805 215.97 31.5645 215.408C31.1543 214.845 30.5947 214.564 29.8857 214.564C29.1885 214.564 28.6348 214.843 28.2246 215.399C27.8145 215.95 27.6094 216.776 27.6094 217.878ZM48.9316 217.878C48.9316 219.348 48.5977 220.523 47.9297 221.402C47.2617 222.275 46.3652 222.712 45.2402 222.712C44.1973 222.712 43.3623 222.369 42.7354 221.683V226.192H40.5996V213.026H42.5684L42.6562 213.993C43.2832 213.231 44.1357 212.85 45.2139 212.85C46.374 212.85 47.2822 213.284 47.9385 214.151C48.6006 215.012 48.9316 216.211 48.9316 217.746V217.878ZM46.8047 217.693C46.8047 216.744 46.6143 215.991 46.2334 215.434C45.8584 214.878 45.3193 214.599 44.6162 214.599C43.7432 214.599 43.1162 214.96 42.7354 215.68V219.899C43.1221 220.637 43.7549 221.007 44.6338 221.007C45.3135 221.007 45.8438 220.734 46.2246 220.189C46.6113 219.638 46.8047 218.806 46.8047 217.693ZM53.0186 222.536H50.8828V209.036H53.0186V222.536ZM61.0342 222.536C60.9404 222.354 60.8584 222.058 60.7881 221.648C60.1084 222.357 59.2764 222.712 58.292 222.712C57.3369 222.712 56.5576 222.439 55.9541 221.894C55.3506 221.349 55.0488 220.676 55.0488 219.873C55.0488 218.859 55.4238 218.083 56.1738 217.544C56.9297 216.999 58.0078 216.726 59.4082 216.726H60.7178V216.102C60.7178 215.61 60.5801 215.218 60.3047 214.925C60.0293 214.626 59.6104 214.476 59.0479 214.476C58.5615 214.476 58.1631 214.599 57.8525 214.845C57.542 215.086 57.3867 215.393 57.3867 215.768H55.251C55.251 215.247 55.4238 214.76 55.7695 214.309C56.1152 213.852 56.584 213.495 57.1758 213.237C57.7734 212.979 58.4385 212.85 59.1709 212.85C60.2842 212.85 61.1719 213.132 61.834 213.694C62.4961 214.251 62.8359 215.036 62.8535 216.05V220.339C62.8535 221.194 62.9736 221.877 63.2139 222.386V222.536H61.0342ZM58.6875 220.998C59.1094 220.998 59.5049 220.895 59.874 220.69C60.249 220.485 60.5303 220.21 60.7178 219.864V218.071H59.5664C58.7754 218.071 58.1807 218.209 57.7822 218.484C57.3838 218.76 57.1846 219.149 57.1846 219.653C57.1846 220.063 57.3193 220.391 57.5889 220.637C57.8643 220.878 58.2305 220.998 58.6875 220.998ZM67.7666 210.715V213.026H69.4453V214.608H67.7666V219.917C67.7666 220.28 67.8369 220.544 67.9775 220.708C68.124 220.866 68.3818 220.945 68.751 220.945C68.9971 220.945 69.2461 220.916 69.498 220.857V222.51C69.0117 222.644 68.543 222.712 68.0918 222.712C66.4512 222.712 65.6309 221.806 65.6309 219.996V214.608H64.0664V213.026H65.6309V210.715H67.7666ZM71.8359 222.536V214.608H70.3857V213.026H71.8359V212.156C71.8359 211.101 72.1289 210.287 72.7148 209.713C73.3008 209.138 74.1211 208.851 75.1758 208.851C75.5508 208.851 75.9492 208.904 76.3711 209.01L76.3184 210.679C76.084 210.633 75.8115 210.609 75.501 210.609C74.4814 210.609 73.9717 211.134 73.9717 212.182V213.026H75.9053V214.608H73.9717V222.536H71.8359ZM77.0654 217.693C77.0654 216.761 77.25 215.924 77.6191 215.179C77.9883 214.429 78.5068 213.855 79.1748 213.457C79.8428 213.052 80.6104 212.85 81.4775 212.85C82.7607 212.85 83.8008 213.263 84.5977 214.09C85.4004 214.916 85.834 216.011 85.8984 217.377L85.9072 217.878C85.9072 218.815 85.7256 219.653 85.3623 220.391C85.0049 221.13 84.4893 221.701 83.8154 222.105C83.1475 222.51 82.374 222.712 81.4951 222.712C80.1533 222.712 79.0781 222.266 78.2695 221.376C77.4668 220.479 77.0654 219.287 77.0654 217.799V217.693ZM79.2012 217.878C79.2012 218.856 79.4033 219.624 79.8076 220.18C80.2119 220.731 80.7744 221.007 81.4951 221.007C82.2158 221.007 82.7754 220.725 83.1738 220.163C83.5781 219.6 83.7803 218.777 83.7803 217.693C83.7803 216.732 83.5723 215.97 83.1562 215.408C82.7461 214.845 82.1865 214.564 81.4775 214.564C80.7803 214.564 80.2266 214.843 79.8164 215.399C79.4062 215.95 79.2012 216.776 79.2012 217.878ZM92.6924 214.977C92.4111 214.93 92.1211 214.907 91.8223 214.907C90.8438 214.907 90.1846 215.282 89.8447 216.032V222.536H87.709V213.026H89.748L89.8008 214.09C90.3164 213.263 91.0312 212.85 91.9453 212.85C92.25 212.85 92.502 212.891 92.7012 212.973L92.6924 214.977ZM96.0498 213.026L96.1113 214.019C96.7793 213.24 97.6934 212.85 98.8535 212.85C100.125 212.85 100.995 213.337 101.464 214.309C102.155 213.337 103.128 212.85 104.382 212.85C105.431 212.85 106.21 213.14 106.72 213.72C107.235 214.301 107.499 215.156 107.511 216.287V222.536H105.375V216.348C105.375 215.745 105.243 215.302 104.979 215.021C104.716 214.74 104.279 214.599 103.67 214.599C103.184 214.599 102.785 214.731 102.475 214.995C102.17 215.253 101.956 215.593 101.833 216.014L101.842 222.536H99.7061V216.278C99.6768 215.159 99.1055 214.599 97.9922 214.599C97.1367 214.599 96.5303 214.948 96.1729 215.645V222.536H94.0371V213.026H96.0498ZM119.517 219.952C119.517 219.571 119.358 219.281 119.042 219.082C118.731 218.883 118.213 218.707 117.486 218.554C116.76 218.402 116.153 218.209 115.667 217.974C114.601 217.459 114.067 216.712 114.067 215.733C114.067 214.913 114.413 214.227 115.104 213.677C115.796 213.126 116.675 212.85 117.741 212.85C118.878 212.85 119.795 213.132 120.492 213.694C121.195 214.257 121.547 214.986 121.547 215.883H119.411C119.411 215.472 119.259 215.133 118.954 214.863C118.649 214.588 118.245 214.45 117.741 214.45C117.272 214.45 116.889 214.558 116.59 214.775C116.297 214.992 116.15 215.282 116.15 215.645C116.15 215.973 116.288 216.228 116.563 216.41C116.839 216.592 117.396 216.776 118.233 216.964C119.071 217.145 119.728 217.365 120.202 217.623C120.683 217.875 121.037 218.179 121.266 218.537C121.5 218.894 121.617 219.328 121.617 219.838C121.617 220.693 121.263 221.387 120.554 221.921C119.845 222.448 118.916 222.712 117.768 222.712C116.988 222.712 116.294 222.571 115.685 222.29C115.075 222.009 114.601 221.622 114.261 221.13C113.921 220.637 113.751 220.107 113.751 219.539H115.825C115.854 220.043 116.045 220.432 116.396 220.708C116.748 220.977 117.214 221.112 117.794 221.112C118.356 221.112 118.784 221.007 119.077 220.796C119.37 220.579 119.517 220.298 119.517 219.952ZM127.673 222.712C126.319 222.712 125.221 222.287 124.377 221.437C123.539 220.582 123.12 219.445 123.12 218.027V217.763C123.12 216.814 123.302 215.968 123.665 215.223C124.034 214.473 124.55 213.89 125.212 213.474C125.874 213.058 126.612 212.85 127.427 212.85C128.722 212.85 129.721 213.263 130.424 214.09C131.133 214.916 131.487 216.085 131.487 217.596V218.458H125.273C125.338 219.243 125.599 219.864 126.056 220.321C126.519 220.778 127.099 221.007 127.796 221.007C128.774 221.007 129.571 220.611 130.187 219.82L131.338 220.919C130.957 221.487 130.447 221.929 129.809 222.246C129.176 222.556 128.464 222.712 127.673 222.712ZM127.418 214.564C126.832 214.564 126.357 214.769 125.994 215.179C125.637 215.59 125.408 216.161 125.309 216.893H129.378V216.735C129.331 216.02 129.141 215.481 128.807 215.118C128.473 214.749 128.01 214.564 127.418 214.564ZM135.425 222.536H133.289V209.036H135.425V222.536ZM141.946 222.712C140.593 222.712 139.494 222.287 138.65 221.437C137.812 220.582 137.394 219.445 137.394 218.027V217.763C137.394 216.814 137.575 215.968 137.938 215.223C138.308 214.473 138.823 213.89 139.485 213.474C140.147 213.058 140.886 212.85 141.7 212.85C142.995 212.85 143.994 213.263 144.697 214.09C145.406 214.916 145.761 216.085 145.761 217.596V218.458H139.547C139.611 219.243 139.872 219.864 140.329 220.321C140.792 220.778 141.372 221.007 142.069 221.007C143.048 221.007 143.845 220.611 144.46 219.82L145.611 220.919C145.23 221.487 144.721 221.929 144.082 222.246C143.449 222.556 142.737 222.712 141.946 222.712ZM141.691 214.564C141.105 214.564 140.631 214.769 140.268 215.179C139.91 215.59 139.682 216.161 139.582 216.893H143.651V216.735C143.604 216.02 143.414 215.481 143.08 215.118C142.746 214.749 142.283 214.564 141.691 214.564ZM151.333 221.007C151.866 221.007 152.309 220.851 152.66 220.541C153.012 220.23 153.199 219.846 153.223 219.389H155.235C155.212 219.981 155.027 220.535 154.682 221.051C154.336 221.56 153.867 221.965 153.275 222.263C152.684 222.562 152.045 222.712 151.359 222.712C150.029 222.712 148.975 222.281 148.195 221.42C147.416 220.558 147.026 219.369 147.026 217.851V217.632C147.026 216.184 147.413 215.027 148.187 214.16C148.96 213.287 150.015 212.85 151.351 212.85C152.481 212.85 153.401 213.181 154.11 213.844C154.825 214.5 155.2 215.364 155.235 216.436H153.223C153.199 215.891 153.012 215.443 152.66 215.092C152.314 214.74 151.872 214.564 151.333 214.564C150.642 214.564 150.108 214.816 149.733 215.32C149.358 215.818 149.168 216.577 149.162 217.596V217.939C149.162 218.97 149.347 219.741 149.716 220.251C150.091 220.755 150.63 221.007 151.333 221.007ZM159.524 210.715V213.026H161.203V214.608H159.524V219.917C159.524 220.28 159.595 220.544 159.735 220.708C159.882 220.866 160.14 220.945 160.509 220.945C160.755 220.945 161.004 220.916 161.256 220.857V222.51C160.77 222.644 160.301 222.712 159.85 222.712C158.209 222.712 157.389 221.806 157.389 219.996V214.608H155.824V213.026H157.389V210.715H159.524ZM167.03 222.712C165.677 222.712 164.578 222.287 163.734 221.437C162.896 220.582 162.478 219.445 162.478 218.027V217.763C162.478 216.814 162.659 215.968 163.022 215.223C163.392 214.473 163.907 213.89 164.569 213.474C165.231 213.058 165.97 212.85 166.784 212.85C168.079 212.85 169.078 213.263 169.781 214.09C170.49 214.916 170.845 216.085 170.845 217.596V218.458H164.631C164.695 219.243 164.956 219.864 165.413 220.321C165.876 220.778 166.456 221.007 167.153 221.007C168.132 221.007 168.929 220.611 169.544 219.82L170.695 220.919C170.314 221.487 169.805 221.929 169.166 222.246C168.533 222.556 167.821 222.712 167.03 222.712ZM166.775 214.564C166.189 214.564 165.715 214.769 165.352 215.179C164.994 215.59 164.766 216.161 164.666 216.893H168.735V216.735C168.688 216.02 168.498 215.481 168.164 215.118C167.83 214.749 167.367 214.564 166.775 214.564ZM172.11 217.711C172.11 216.246 172.45 215.071 173.13 214.186C173.81 213.296 174.721 212.85 175.863 212.85C176.871 212.85 177.686 213.202 178.307 213.905V209.036H180.442V222.536H178.509L178.403 221.552C177.765 222.325 176.912 222.712 175.846 222.712C174.732 222.712 173.83 222.263 173.139 221.367C172.453 220.47 172.11 219.252 172.11 217.711ZM174.246 217.895C174.246 218.862 174.431 219.618 174.8 220.163C175.175 220.702 175.705 220.971 176.391 220.971C177.264 220.971 177.902 220.582 178.307 219.802V215.742C177.914 214.98 177.281 214.599 176.408 214.599C175.717 214.599 175.184 214.875 174.809 215.426C174.434 215.97 174.246 216.794 174.246 217.895ZM190.479 219.477L192.413 213.026H194.689L190.91 223.977C190.33 225.577 189.346 226.377 187.957 226.377C187.646 226.377 187.304 226.324 186.929 226.219V224.566L187.333 224.593C187.872 224.593 188.276 224.493 188.546 224.294C188.821 224.1 189.038 223.772 189.196 223.309L189.504 222.492L186.164 213.026H188.467L190.479 219.477ZM199.989 222.712C198.636 222.712 197.537 222.287 196.693 221.437C195.855 220.582 195.437 219.445 195.437 218.027V217.763C195.437 216.814 195.618 215.968 195.981 215.223C196.351 214.473 196.866 213.89 197.528 213.474C198.19 213.058 198.929 212.85 199.743 212.85C201.038 212.85 202.037 213.263 202.74 214.09C203.449 214.916 203.804 216.085 203.804 217.596V218.458H197.59C197.654 219.243 197.915 219.864 198.372 220.321C198.835 220.778 199.415 221.007 200.112 221.007C201.091 221.007 201.888 220.611 202.503 219.82L203.654 220.919C203.273 221.487 202.764 221.929 202.125 222.246C201.492 222.556 200.78 222.712 199.989 222.712ZM199.734 214.564C199.148 214.564 198.674 214.769 198.311 215.179C197.953 215.59 197.725 216.161 197.625 216.893H201.694V216.735C201.647 216.02 201.457 215.481 201.123 215.118C200.789 214.749 200.326 214.564 199.734 214.564ZM208.146 210.715V213.026H209.824V214.608H208.146V219.917C208.146 220.28 208.216 220.544 208.356 220.708C208.503 220.866 208.761 220.945 209.13 220.945C209.376 220.945 209.625 220.916 209.877 220.857V222.51C209.391 222.644 208.922 222.712 208.471 222.712C206.83 222.712 206.01 221.806 206.01 219.996V214.608H204.445V213.026H206.01V210.715H208.146Z" fill="#A5A5A5"/>
</g>
</g>
</g>
<defs>
<filter id="filter0_d" x="-347" y="-95" width="930" height="804" filterUnits="userSpaceOnUse" color-interpolation-filters="sRGB">
<feFlood flood-opacity="0" result="BackgroundImageFix"/>
<feColorMatrix in="SourceAlpha" type="matrix" values="0 0 0 0 0 0 0 0 0 0 0 0 0 0 0 0 0 0 127 0" result="hardAlpha"/>
<feOffset dy="2"/>
<feGaussianBlur stdDeviation="20"/>
<feColorMatrix type="matrix" values="0 0 0 0 0.270588 0 0 0 0 0.392157 0 0 0 0 0.819608 0 0 0 0.05 0"/>
<feBlend mode="normal" in2="BackgroundImageFix" result="effect1_dropShadow"/>
<feBlend mode="normal" in="SourceGraphic" in2="effect1_dropShadow" result="shape"/>
</filter>
<filter id="filter1_d" x="0.24707" y="0.488281" width="224.048" height="224.048" filterUnits="userSpaceOnUse" color-interpolation-filters="sRGB">
<feFlood flood-opacity="0" result="BackgroundImageFix"/>
<feColorMatrix in="SourceAlpha" type="matrix" values="0 0 0 0 0 0 0 0 0 0 0 0 0 0 0 0 0 0 127 0" result="hardAlpha"/>
<feOffset dy="2"/>
<feGaussianBlur stdDeviation="20"/>
<feColorMatrix type="matrix" values="0 0 0 0 0.207843 0 0 0 0 0.341176 0 0 0 0 0.823529 0 0 0 0.1 0"/>
<feBlend mode="normal" in2="BackgroundImageFix" result="effect1_dropShadow"/>
<feBlend mode="normal" in="SourceGraphic" in2="effect1_dropShadow" result="shape"/>
</filter>
<clipPath id="clip0">
<rect width="1440" height="1080" fill="white" transform="translate(-857 -385)"/>
</clipPath>
<clipPath id="clip1">
<rect x="-307" y="-57" width="850" height="724" rx="10" fill="white"/>
</clipPath>
</defs>
</svg>
