<svg width="225" height="226" viewBox="0 0 225 226" fill="none" xmlns="http://www.w3.org/2000/svg">
<rect width="225" height="226" fill="#BAC2C7"/>
<g clip-path="url(#clip0)">
<rect width="1440" height="1080" transform="translate(-856 -758)" fill="#F9FBFC"/>
<g filter="url(#filter0_d)">
<g clip-path="url(#clip1)">
<rect x="-306" y="-430" width="850" height="724" rx="10" fill="white"/>
<circle cx="187.024" cy="153.303" r="2.97619" fill="#D7DDF6"/>
<g filter="url(#filter1_d)">
<circle cx="112.024" cy="110.024" r="72.0238" fill="#F5F7FD"/>
</g>
<rect x="55.9805" y="83.252" width="114.013" height="69.3347" rx="17.5" fill="white" stroke="#E8E8E8" stroke-width="5"/>
<line x1="104.125" y1="155.087" x2="104.125" y2="170.493" stroke="#E8E8E8" stroke-width="5"/>
<line x1="127.234" y1="155.087" x2="127.234" y2="170.493" stroke="#E8E8E8" stroke-width="5"/>
<line x1="95.9521" y1="168.238" x2="132.857" y2="168.238" stroke="#E8E8E8" stroke-width="5"/>
<circle cx="42.1183" cy="122.926" r="2.11835" fill="#D7DDF6"/>
<circle cx="91.9955" cy="46.4733" r="6.16247" fill="#D7DDF6"/>
<circle cx="145.533" cy="77.6708" r="32.3529" fill="#CDCDCE"/>
<g clip-path="url(#clip2)">
<path fill-rule="evenodd" clip-rule="evenodd" d="M145.308 52.5076C131.529 52.5076 120.369 63.6676 120.369 77.4463C120.369 88.4817 127.508 97.8025 137.421 101.107C138.668 101.325 139.136 100.577 139.136 99.9223C139.136 99.33 139.104 97.3661 139.104 95.2775C132.839 96.4309 131.217 93.75 130.719 92.3472C130.438 91.6302 129.222 89.4169 128.162 88.8246C127.29 88.357 126.043 87.2036 128.131 87.1724C130.095 87.1412 131.498 88.9805 131.966 89.7286C134.21 93.5006 137.795 92.4407 139.229 91.7861C139.447 90.165 140.102 89.074 140.819 88.4505C135.27 87.827 129.472 85.6761 129.472 76.137C129.472 73.4249 130.438 71.1804 132.028 69.4347C131.779 68.8113 130.906 66.255 132.277 62.826C132.277 62.826 134.366 62.1713 139.136 65.3822C141.131 64.8211 143.25 64.5405 145.37 64.5405C147.49 64.5405 149.61 64.8211 151.605 65.3822C156.374 62.1402 158.463 62.826 158.463 62.826C159.835 66.255 158.962 68.8113 158.712 69.4347C160.302 71.1804 161.269 73.3937 161.269 76.137C161.269 85.7072 155.439 87.827 149.89 88.4505C150.794 89.2298 151.574 90.7262 151.574 93.0642C151.574 96.3997 151.543 99.0806 151.543 99.9223C151.543 100.577 152.01 101.356 153.257 101.107C158.208 99.4354 162.51 96.2536 165.557 92.0092C168.605 87.7648 170.245 82.6715 170.247 77.4463C170.247 63.6676 159.087 52.5076 145.308 52.5076Z" fill="#E5E5E5"/>
</g>
<circle cx="150.346" cy="136.022" r="14.0581" fill="#CDCDCE"/>
<g clip-path="url(#clip3)">
<path d="M155.132 132.862V130.654C155.424 130.517 155.672 130.3 155.846 130.028C156.02 129.756 156.113 129.44 156.115 129.117V129.065C156.113 128.614 155.934 128.182 155.615 127.863C155.296 127.544 154.864 127.365 154.413 127.363H154.361C153.91 127.364 153.478 127.543 153.158 127.862C152.839 128.181 152.659 128.613 152.657 129.065V129.117C152.659 129.438 152.751 129.752 152.923 130.022C153.096 130.293 153.341 130.51 153.631 130.648L153.64 130.654V132.867C152.795 132.995 152 133.346 151.336 133.883L151.345 133.877L145.268 129.144C145.817 127.094 143.142 125.781 141.856 127.47C140.567 129.156 142.536 131.388 144.37 130.321L144.361 130.326L150.335 134.975C149.807 135.768 149.526 136.7 149.528 137.653C149.528 138.692 149.859 139.66 150.42 140.451L150.41 140.436L148.591 142.253C148.445 142.207 148.294 142.183 148.142 142.18H148.139C146.735 142.18 146.029 143.881 147.023 144.876C148.018 145.867 149.719 145.164 149.719 143.76C149.716 143.602 149.689 143.445 149.64 143.296L149.643 143.308L151.442 141.509C152.028 141.957 152.709 142.265 153.433 142.41C154.156 142.555 154.903 142.533 155.617 142.346C156.33 142.159 156.991 141.811 157.55 141.329C158.108 140.848 158.55 140.245 158.84 139.568C159.131 138.89 159.264 138.155 159.228 137.419C159.193 136.682 158.989 135.964 158.634 135.317C158.279 134.671 157.782 134.114 157.179 133.69C156.576 133.265 155.884 132.984 155.156 132.867L155.126 132.861L155.132 132.862ZM154.382 140.143C152.166 140.137 151.062 137.456 152.633 135.891C154.201 134.326 156.878 135.437 156.878 137.653V137.656C156.878 137.983 156.814 138.306 156.689 138.608C156.564 138.91 156.38 139.185 156.149 139.415C155.918 139.646 155.643 139.83 155.341 139.954C155.039 140.079 154.716 140.143 154.389 140.143H154.382Z" fill="#E5E5E5"/>
</g>
<circle cx="66.3827" cy="84.411" r="20.2206" fill="#CDCDCE"/>
<path d="M62.9165 83.9024H61.632C61.6657 83.6495 61.7939 83.2105 62.2969 83.2105C62.626 83.2105 62.8804 83.3977 62.9165 83.9024ZM69.5782 83.2223C69.5552 83.2223 68.8904 83.1355 68.8904 84.2022C68.8904 85.269 69.5548 85.1822 69.5782 85.1822C70.2119 85.1822 70.266 84.5188 70.266 84.2022C70.266 83.136 69.6001 83.2223 69.5782 83.2223ZM57.7221 84.3865C57.6687 84.4286 57.6262 84.4831 57.5982 84.5453C57.5703 84.6075 57.5578 84.6756 57.5617 84.7437C57.5617 84.9779 57.6631 85.0401 57.7221 85.0891C57.9512 85.2704 58.4567 85.193 58.7423 85.1357V84.3056C58.483 84.2532 57.9268 84.2096 57.7221 84.3865ZM81.9817 83.234C81.9817 87.5254 78.082 90.7991 73.921 89.919C73.0255 91.536 70.4731 93.3858 67.4767 91.9589C65.4703 96.6653 58.8052 96.4757 57.0543 91.7056C51.2183 92.8762 48.3374 84.9255 53.3851 81.9409C51.6912 78.0489 54.4887 73.4341 58.9573 73.4341C59.8866 73.4347 60.8033 73.6502 61.6364 74.064C62.4695 74.4778 63.1967 75.0788 63.7618 75.8204C64.7708 74.7718 66.1698 74.1147 67.7175 74.1147C69.7814 74.1147 71.5685 75.2672 72.5336 76.9846C77.0583 74.9913 81.9817 78.3679 81.9817 83.234ZM56.6555 84.7922C56.6555 84.216 56.0857 84.0489 55.7844 83.9509C55.5275 83.8475 55.1307 83.7789 55.1307 83.5128C55.1307 83.0493 55.9594 83.1865 56.3577 83.4089C56.3577 83.4089 56.4147 83.4437 56.4376 83.3859C56.4493 83.3516 56.5527 83.0635 56.5639 83.0287C56.5682 83.015 56.5671 83.0001 56.5607 82.9872C56.5544 82.9743 56.5433 82.9644 56.5297 82.9596C55.9287 82.5857 54.5458 82.5426 54.5458 83.5819C54.5458 84.1924 55.1059 84.3385 55.4174 84.4232C55.6474 84.5007 56.0593 84.5702 56.0593 84.8495C56.0593 85.0455 55.8873 85.1955 55.6123 85.1955C55.2783 85.1949 54.9534 85.0858 54.6862 84.8843C54.6632 84.873 54.6169 84.8495 54.6057 84.9191L54.4887 85.2851C54.4658 85.3312 54.4999 85.343 54.4999 85.3542C54.5853 85.4228 55.002 85.6771 55.6123 85.6771C56.2543 85.6771 56.6555 85.3312 56.6555 84.7898V84.7922ZM58.2154 82.7058C57.7216 82.7058 57.3058 82.8611 57.1722 82.9596C57.1669 82.9633 57.1623 82.9681 57.1588 82.9736C57.1554 82.9791 57.153 82.9852 57.1519 82.9917C57.1508 82.9981 57.151 83.0047 57.1525 83.0111C57.154 83.0174 57.1567 83.0234 57.1605 83.0287L57.2868 83.3746C57.2902 83.3867 57.2981 83.3969 57.3088 83.4033C57.3195 83.4096 57.3322 83.4117 57.3443 83.4089C57.376 83.4089 57.6758 83.2129 58.1696 83.2129C58.3646 83.2129 58.5137 83.2477 58.6171 83.3286C58.7925 83.4658 58.7662 83.7348 58.7662 83.847C58.5327 83.8323 57.8347 83.6784 57.3326 84.0312C57.2181 84.1101 57.1253 84.2168 57.0628 84.3413C57.0003 84.4659 56.97 84.6043 56.9748 84.7437C56.9748 85.0328 57.0484 85.2533 57.296 85.4468C57.8927 85.8467 59.0646 85.5448 59.1533 85.5159C59.2303 85.5002 59.3253 85.4836 59.3253 85.4238V83.7637C59.3273 83.5378 59.3409 82.7033 58.2149 82.7033L58.2154 82.7058ZM60.4845 81.6778C60.485 81.6701 60.4839 81.6623 60.4812 81.6551C60.4785 81.6478 60.4742 81.6413 60.4688 81.6358C60.4634 81.6303 60.4568 81.6261 60.4496 81.6233C60.4424 81.6206 60.4347 81.6195 60.427 81.62H59.9483C59.9407 81.6195 59.933 81.6207 59.9259 81.6235C59.9187 81.6263 59.9123 81.6305 59.9069 81.636C59.9015 81.6414 59.8973 81.648 59.8946 81.6552C59.8919 81.6624 59.8908 81.6701 59.8913 81.6778V85.5488C59.8908 85.5564 59.8919 85.5641 59.8946 85.5713C59.8973 85.5785 59.9015 85.5851 59.9069 85.5906C59.9123 85.596 59.9187 85.6003 59.9259 85.603C59.933 85.6058 59.9407 85.607 59.9483 85.6066H60.4299C60.4376 85.6071 60.4453 85.6059 60.4525 85.6032C60.4597 85.6005 60.4663 85.5962 60.4717 85.5908C60.4772 85.5853 60.4814 85.5787 60.4841 85.5715C60.4868 85.5642 60.488 85.5565 60.4875 85.5488L60.4845 81.6778ZM63.2021 83.0953C63.0998 82.9822 62.8712 82.7264 62.3418 82.7264C62.1707 82.7264 61.6515 82.7376 61.3327 83.1644C61.0232 83.5383 61.012 84.0518 61.012 84.2135C61.012 84.3664 61.0193 84.9122 61.3561 85.2508C61.4848 85.3934 61.7978 85.6541 62.468 85.6541C62.9955 85.6541 63.2709 85.539 63.3737 85.4699C63.3966 85.4581 63.4083 85.4351 63.3854 85.3777L63.2709 85.0431C63.265 85.0304 63.255 85.02 63.2425 85.0138C63.23 85.0076 63.2158 85.0058 63.2021 85.0088C63.0759 85.0548 62.8926 85.147 62.4568 85.147C61.6076 85.147 61.6354 84.4247 61.631 84.3287H63.4429C63.4562 84.3284 63.4689 84.3237 63.4793 84.3154C63.4896 84.3071 63.4969 84.2955 63.5 84.2826C63.4858 84.2826 63.6009 83.5623 63.2031 83.0953H63.2021ZM64.9906 85.6771C65.6326 85.6771 66.0343 85.3312 66.0343 84.7898C66.0343 84.2135 65.464 84.0464 65.1627 83.9484C64.9609 83.8671 64.509 83.7828 64.509 83.5104C64.509 83.3261 64.6694 83.1992 64.9219 83.1992C65.2054 83.2049 65.4839 83.2758 65.736 83.4065C65.736 83.4065 65.7935 83.4413 65.8164 83.3835C65.8276 83.3492 65.931 83.061 65.9422 83.0263C65.9465 83.0125 65.9454 82.9977 65.939 82.9848C65.9327 82.9719 65.9216 82.962 65.9081 82.9572C65.5225 82.7171 65.092 82.7151 64.9219 82.7151C64.337 82.7151 63.9246 83.0723 63.9246 83.5795C63.9246 84.19 64.4842 84.336 64.7957 84.4208C65.0935 84.5188 65.4376 84.5805 65.4376 84.8471C65.4376 85.0431 65.2661 85.193 64.9906 85.193C64.6566 85.1923 64.3318 85.0832 64.0645 84.8819C64.0575 84.8759 64.0491 84.872 64.0401 84.8706C64.0311 84.8692 64.0218 84.8704 64.0135 84.874C64.0051 84.8777 63.9979 84.8836 63.9927 84.8911C63.9875 84.8987 63.9845 84.9075 63.984 84.9167L63.8695 85.2851C63.8466 85.3312 63.8807 85.343 63.8807 85.3542C63.9645 85.4228 64.3842 85.6771 64.9916 85.6771H64.9906ZM68.1908 82.842C68.1908 82.8072 68.1791 82.7842 68.1333 82.7842H67.5601C67.5601 82.7773 67.6059 82.3461 67.778 82.1732C67.9807 81.9698 68.3512 82.0928 68.3629 82.0928C68.4199 82.1158 68.4316 82.0928 68.4429 82.0698L68.5808 81.6891C68.6149 81.643 68.5808 81.6317 68.5691 81.62C68.321 81.522 67.7234 81.4793 67.3768 81.8277C67.1096 82.0962 67.0356 82.5098 66.9868 82.7842H66.5739C66.5591 82.7854 66.5453 82.7919 66.5348 82.8025C66.5244 82.8131 66.518 82.8271 66.5169 82.842L66.4477 83.2223C66.4477 83.2566 66.4594 83.2796 66.5052 83.2796H66.9064C66.4915 85.6267 66.4798 85.7399 66.4019 86C66.3492 86.1774 66.2415 86.3381 66.1152 86.3803C66.1108 86.3803 65.9261 86.4626 65.6453 86.3685C65.6453 86.3685 65.5995 86.3455 65.5766 86.4033C65.5649 86.4381 65.4503 86.7375 65.4386 86.7723C65.4269 86.8071 65.4386 86.8414 65.4615 86.8414C65.7106 86.9394 66.0952 86.9281 66.3331 86.8414C66.6392 86.7296 66.8069 86.4548 66.8952 86.2073C67.0292 85.8295 67.0321 85.7276 67.4684 83.2801H68.0646C68.0794 83.2788 68.0934 83.2724 68.1039 83.2618C68.1144 83.2512 68.1209 83.2372 68.1221 83.2223L68.1908 82.842ZM70.7934 83.626C70.7661 83.5437 70.5448 82.7386 69.5665 82.7386C68.8231 82.7386 68.4453 83.2286 68.34 83.626C68.2913 83.773 68.185 84.312 68.34 84.7785C68.3444 84.7932 68.555 85.6664 69.5665 85.6664C70.2952 85.6664 70.6828 85.1955 70.7934 84.7785C70.9499 84.3076 70.8426 83.773 70.7934 83.626ZM73.0065 82.8077C72.7628 82.7269 72.1963 82.7146 71.9287 83.0728V82.8538C71.9291 82.8461 71.9279 82.8384 71.9252 82.8312C71.9224 82.824 71.9182 82.8175 71.9128 82.8121C71.9073 82.8067 71.9008 82.8025 71.8937 82.7998C71.8865 82.7971 71.8788 82.7959 71.8712 82.7964H71.413C71.4053 82.7959 71.3977 82.7971 71.3905 82.7998C71.3833 82.8025 71.3768 82.8067 71.3714 82.8121C71.3659 82.8175 71.3617 82.824 71.359 82.8312C71.3562 82.8384 71.355 82.8461 71.3555 82.8538V85.5625C71.355 85.5702 71.3562 85.5779 71.359 85.5851C71.3617 85.5923 71.3659 85.5988 71.3714 85.6043C71.3768 85.6098 71.3833 85.614 71.3905 85.6168C71.3976 85.6195 71.4053 85.6207 71.413 85.6203H71.8829C71.8906 85.6207 71.8982 85.6195 71.9054 85.6168C71.9126 85.614 71.9191 85.6098 71.9245 85.6043C71.9299 85.5988 71.9341 85.5923 71.9369 85.5851C71.9396 85.5779 71.9408 85.5702 71.9404 85.5625V84.2018C71.9404 84.0592 71.9428 83.6446 72.1578 83.4643C72.3967 83.2242 72.7428 83.2997 72.8115 83.3144C72.8261 83.3141 72.8404 83.3096 72.8526 83.3015C72.8648 83.2933 72.8744 83.2818 72.8802 83.2683C72.9374 83.1406 72.9872 83.0098 73.0294 82.8763C73.0342 82.8639 73.0346 82.8502 73.0304 82.8376C73.0262 82.825 73.0177 82.8142 73.0065 82.8072V82.8077ZM75.2883 85.4586L75.185 85.1014C75.1621 85.0436 75.1162 85.0666 75.1162 85.0666C74.91 85.1558 74.6215 85.1592 74.5659 85.1592C74.3397 85.1592 73.7289 85.1038 73.7289 84.191C73.7289 83.8857 73.8191 83.2227 74.5318 83.2227C74.7221 83.2179 74.912 83.2452 75.0933 83.3036C75.0933 83.3036 75.1391 83.3266 75.1508 83.2688C75.1967 83.1419 75.2308 83.0498 75.2771 82.8998C75.2883 82.8538 75.2542 82.8425 75.2425 82.8425C74.6775 82.6529 74.1535 82.7185 73.8893 82.8425C73.8118 82.8788 73.0981 83.1605 73.0981 84.191C73.0981 84.3331 73.0699 85.6664 74.5089 85.6664C74.7672 85.6658 75.0235 85.6189 75.2654 85.5277C75.2759 85.5199 75.2837 85.509 75.2878 85.4965C75.2919 85.4841 75.2921 85.4707 75.2883 85.4581V85.4586ZM77.9143 83.5221C77.8753 83.3751 77.6525 82.7269 76.8248 82.7269C76.0448 82.7269 75.6783 83.2223 75.5749 83.6378C75.5187 83.8245 75.4916 84.0189 75.4945 84.214C75.4945 85.4816 76.4129 85.6546 76.951 85.6546C77.4785 85.6546 77.7534 85.5394 77.8567 85.4704C77.8797 85.4586 77.8914 85.4356 77.8684 85.3782L77.7534 85.0436C77.7475 85.0309 77.7375 85.0205 77.725 85.0143C77.7125 85.0081 77.6983 85.0063 77.6847 85.0093C77.5584 85.0553 77.3751 85.1474 76.9393 85.1474C76.0902 85.1474 76.118 84.4252 76.1141 84.3292H77.9255C77.9387 84.3288 77.9515 84.3241 77.9619 84.3158C77.9723 84.3075 77.9797 84.296 77.983 84.2831C77.9713 84.2826 78.0288 83.9367 77.9143 83.5216V83.5221ZM76.779 83.211C76.2754 83.211 76.1453 83.652 76.1141 83.9029H77.3995C77.3566 83.3188 77.0281 83.2105 76.779 83.2105V83.211Z" fill="#E5E5E5"/>
<circle cx="86.6036" cy="143.147" r="22.3389" fill="#CDCDCE"/>
<g clip-path="url(#clip4)">
<path d="M84.1062 143.083C83.3565 143.083 82.7646 143.74 82.7646 144.543C82.7646 145.345 83.3697 146.003 84.1062 146.003C84.8559 146.003 85.4478 145.345 85.4478 144.543C85.461 143.74 84.8559 143.083 84.1062 143.083ZM88.907 143.083C88.1573 143.083 87.5654 143.74 87.5654 144.543C87.5654 145.345 88.1705 146.003 88.907 146.003C89.6567 146.003 90.2486 145.345 90.2486 144.543C90.2486 143.74 89.6567 143.083 88.907 143.083Z" fill="#E5E5E5"/>
<path d="M95.2987 132.048H77.6739C76.1876 132.048 74.9775 133.258 74.9775 134.757V152.54C74.9775 154.039 76.1876 155.249 77.6739 155.249H92.5892L91.8921 152.816L93.5756 154.381L95.1671 155.854L97.995 158.353V134.757C97.995 133.258 96.7849 132.048 95.2987 132.048ZM90.2217 149.225C90.2217 149.225 89.7482 148.66 89.3536 148.16C91.0766 147.673 91.7342 146.595 91.7342 146.595C91.195 146.95 90.682 147.2 90.2217 147.371C89.564 147.647 88.9327 147.831 88.3145 147.936C87.188 148.144 86.0328 148.139 84.9079 147.923C84.2476 147.794 83.6004 147.605 82.9745 147.358C82.6445 147.231 82.3237 147.081 82.0143 146.91C81.9748 146.884 81.9354 146.871 81.8959 146.845C81.8696 146.831 81.8565 146.818 81.8433 146.805C81.6066 146.674 81.475 146.581 81.475 146.581C81.475 146.581 82.1064 147.634 83.7768 148.134C83.3822 148.633 82.8955 149.225 82.8955 149.225C79.9888 149.133 78.8839 147.226 78.8839 147.226C78.8839 142.991 80.7779 139.558 80.7779 139.558C82.6719 138.137 84.4739 138.177 84.4739 138.177L84.6054 138.335C82.2379 139.019 81.1462 140.058 81.1462 140.058C81.1462 140.058 81.4356 139.9 81.9222 139.676C83.3296 139.058 84.4476 138.887 84.9079 138.848C84.9868 138.834 85.0526 138.821 85.1315 138.821C87.4124 138.513 89.732 138.946 91.7474 140.058C91.7474 140.058 90.7083 139.071 88.4723 138.387L88.6565 138.177C88.6565 138.177 90.4584 138.137 92.3524 139.558C92.3524 139.558 94.2464 142.991 94.2464 147.226C94.2464 147.226 93.1284 149.133 90.2217 149.225Z" fill="#E5E5E5"/>
</g>
<path d="M28.4521 222.048H26.2285L20.5244 212.969V222.048H18.3008V209.251H20.5244L26.2461 218.365V209.251H28.4521V222.048ZM30.4736 217.205C30.4736 216.273 30.6582 215.435 31.0273 214.691C31.3965 213.941 31.915 213.367 32.583 212.969C33.251 212.564 34.0186 212.362 34.8857 212.362C36.1689 212.362 37.209 212.775 38.0059 213.601C38.8086 214.427 39.2422 215.523 39.3066 216.888L39.3154 217.389C39.3154 218.327 39.1338 219.165 38.7705 219.903C38.4131 220.641 37.8975 221.213 37.2236 221.617C36.5557 222.021 35.7822 222.223 34.9033 222.223C33.5615 222.223 32.4863 221.778 31.6777 220.887C30.875 219.991 30.4736 218.799 30.4736 217.31V217.205ZM32.6094 217.389C32.6094 218.368 32.8115 219.135 33.2158 219.692C33.6201 220.243 34.1826 220.518 34.9033 220.518C35.624 220.518 36.1836 220.237 36.582 219.675C36.9863 219.112 37.1885 218.289 37.1885 217.205C37.1885 216.244 36.9805 215.482 36.5645 214.92C36.1543 214.357 35.5947 214.076 34.8857 214.076C34.1885 214.076 33.6348 214.354 33.2246 214.911C32.8145 215.462 32.6094 216.288 32.6094 217.389ZM51.2861 222.048C51.1924 221.866 51.1104 221.57 51.04 221.16C50.3604 221.869 49.5283 222.223 48.5439 222.223C47.5889 222.223 46.8096 221.951 46.2061 221.406C45.6025 220.861 45.3008 220.187 45.3008 219.385C45.3008 218.371 45.6758 217.594 46.4258 217.055C47.1816 216.51 48.2598 216.238 49.6602 216.238H50.9697V215.614C50.9697 215.122 50.832 214.729 50.5566 214.436C50.2812 214.137 49.8623 213.988 49.2998 213.988C48.8135 213.988 48.415 214.111 48.1045 214.357C47.7939 214.597 47.6387 214.905 47.6387 215.28H45.5029C45.5029 214.759 45.6758 214.272 46.0215 213.821C46.3672 213.364 46.8359 213.007 47.4277 212.749C48.0254 212.491 48.6904 212.362 49.4229 212.362C50.5361 212.362 51.4238 212.643 52.0859 213.206C52.748 213.762 53.0879 214.548 53.1055 215.561V219.85C53.1055 220.706 53.2256 221.388 53.4658 221.898V222.048H51.2861ZM48.9395 220.51C49.3613 220.51 49.7568 220.407 50.126 220.202C50.501 219.997 50.7822 219.721 50.9697 219.376V217.583H49.8184C49.0273 217.583 48.4326 217.72 48.0342 217.996C47.6357 218.271 47.4365 218.661 47.4365 219.165C47.4365 219.575 47.5713 219.903 47.8408 220.149C48.1162 220.389 48.4824 220.51 48.9395 220.51ZM59.249 220.518C59.7822 220.518 60.2246 220.363 60.5762 220.052C60.9277 219.742 61.1152 219.358 61.1387 218.901H63.1514C63.1279 219.493 62.9434 220.047 62.5977 220.562C62.252 221.072 61.7832 221.476 61.1914 221.775C60.5996 222.074 59.9609 222.223 59.2754 222.223C57.9453 222.223 56.8906 221.793 56.1113 220.931C55.332 220.07 54.9424 218.881 54.9424 217.363V217.143C54.9424 215.696 55.3291 214.539 56.1025 213.672C56.876 212.799 57.9307 212.362 59.2666 212.362C60.3975 212.362 61.3174 212.693 62.0264 213.355C62.7412 214.011 63.1162 214.876 63.1514 215.948H61.1387C61.1152 215.403 60.9277 214.955 60.5762 214.603C60.2305 214.252 59.7881 214.076 59.249 214.076C58.5576 214.076 58.0244 214.328 57.6494 214.832C57.2744 215.33 57.084 216.089 57.0781 217.108V217.451C57.0781 218.482 57.2627 219.253 57.6318 219.762C58.0068 220.266 58.5459 220.518 59.249 220.518ZM67.4404 210.226V212.538H69.1191V214.12H67.4404V219.428C67.4404 219.792 67.5107 220.055 67.6514 220.219C67.7979 220.378 68.0557 220.457 68.4248 220.457C68.6709 220.457 68.9199 220.427 69.1719 220.369V222.021C68.6855 222.156 68.2168 222.223 67.7656 222.223C66.125 222.223 65.3047 221.318 65.3047 219.508V214.12H63.7402V212.538H65.3047V210.226H67.4404ZM73.0303 222.048H70.8945V212.538H73.0303V222.048ZM70.7627 210.068C70.7627 209.74 70.8652 209.468 71.0703 209.251C71.2812 209.034 71.5801 208.926 71.9668 208.926C72.3535 208.926 72.6523 209.034 72.8633 209.251C73.0742 209.468 73.1797 209.74 73.1797 210.068C73.1797 210.39 73.0742 210.66 72.8633 210.877C72.6523 211.088 72.3535 211.193 71.9668 211.193C71.5801 211.193 71.2812 211.088 71.0703 210.877C70.8652 210.66 70.7627 210.39 70.7627 210.068ZM78.7168 219.341L80.7295 212.538H82.9355L79.6396 222.048H77.7852L74.4629 212.538H76.6777L78.7168 219.341ZM86.5479 222.048H84.4121V212.538H86.5479V222.048ZM84.2803 210.068C84.2803 209.74 84.3828 209.468 84.5879 209.251C84.7988 209.034 85.0977 208.926 85.4844 208.926C85.8711 208.926 86.1699 209.034 86.3809 209.251C86.5918 209.468 86.6973 209.74 86.6973 210.068C86.6973 210.39 86.5918 210.66 86.3809 210.877C86.1699 211.088 85.8711 211.193 85.4844 211.193C85.0977 211.193 84.7988 211.088 84.5879 210.877C84.3828 210.66 84.2803 210.39 84.2803 210.068ZM91.5576 210.226V212.538H93.2363V214.12H91.5576V219.428C91.5576 219.792 91.6279 220.055 91.7686 220.219C91.915 220.378 92.1729 220.457 92.542 220.457C92.7881 220.457 93.0371 220.427 93.2891 220.369V222.021C92.8027 222.156 92.334 222.223 91.8828 222.223C90.2422 222.223 89.4219 221.318 89.4219 219.508V214.12H87.8574V212.538H89.4219V210.226H91.5576ZM98.2021 218.989L100.136 212.538H102.412L98.6328 223.489C98.0527 225.089 97.0684 225.888 95.6797 225.888C95.3691 225.888 95.0264 225.836 94.6514 225.73V224.078L95.0557 224.104C95.5947 224.104 95.999 224.005 96.2686 223.805C96.5439 223.612 96.7607 223.284 96.9189 222.821L97.2266 222.004L93.8867 212.538H96.1895L98.2021 218.989ZM110.806 210.226V212.538H112.484V214.12H110.806V219.428C110.806 219.792 110.876 220.055 111.017 220.219C111.163 220.378 111.421 220.457 111.79 220.457C112.036 220.457 112.285 220.427 112.537 220.369V222.021C112.051 222.156 111.582 222.223 111.131 222.223C109.49 222.223 108.67 221.318 108.67 219.508V214.12H107.105V212.538H108.67V210.226H110.806ZM116.396 222.048H114.26V212.538H116.396V222.048ZM114.128 210.068C114.128 209.74 114.23 209.468 114.436 209.251C114.646 209.034 114.945 208.926 115.332 208.926C115.719 208.926 116.018 209.034 116.229 209.251C116.439 209.468 116.545 209.74 116.545 210.068C116.545 210.39 116.439 210.66 116.229 210.877C116.018 211.088 115.719 211.193 115.332 211.193C114.945 211.193 114.646 211.088 114.436 210.877C114.23 210.66 114.128 210.39 114.128 210.068ZM120.737 212.538L120.799 213.531C121.467 212.752 122.381 212.362 123.541 212.362C124.812 212.362 125.683 212.848 126.151 213.821C126.843 212.848 127.815 212.362 129.069 212.362C130.118 212.362 130.897 212.652 131.407 213.232C131.923 213.812 132.187 214.668 132.198 215.799V222.048H130.062V215.86C130.062 215.257 129.931 214.814 129.667 214.533C129.403 214.252 128.967 214.111 128.357 214.111C127.871 214.111 127.473 214.243 127.162 214.507C126.857 214.764 126.644 215.104 126.521 215.526L126.529 222.048H124.394V215.79C124.364 214.671 123.793 214.111 122.68 214.111C121.824 214.111 121.218 214.46 120.86 215.157V222.048H118.725V212.538H120.737ZM138.579 222.223C137.226 222.223 136.127 221.799 135.283 220.949C134.445 220.094 134.026 218.957 134.026 217.539V217.275C134.026 216.326 134.208 215.479 134.571 214.735C134.94 213.985 135.456 213.402 136.118 212.986C136.78 212.57 137.519 212.362 138.333 212.362C139.628 212.362 140.627 212.775 141.33 213.601C142.039 214.427 142.394 215.596 142.394 217.108V217.969H136.18C136.244 218.755 136.505 219.376 136.962 219.833C137.425 220.29 138.005 220.518 138.702 220.518C139.681 220.518 140.478 220.123 141.093 219.332L142.244 220.43C141.863 220.999 141.354 221.441 140.715 221.758C140.082 222.068 139.37 222.223 138.579 222.223ZM138.324 214.076C137.738 214.076 137.264 214.281 136.9 214.691C136.543 215.101 136.314 215.673 136.215 216.405H140.284V216.247C140.237 215.532 140.047 214.993 139.713 214.63C139.379 214.26 138.916 214.076 138.324 214.076ZM146.331 222.048H144.195V208.548H146.331V222.048ZM150.937 222.048H148.801V212.538H150.937V222.048ZM148.669 210.068C148.669 209.74 148.771 209.468 148.977 209.251C149.188 209.034 149.486 208.926 149.873 208.926C150.26 208.926 150.559 209.034 150.77 209.251C150.98 209.468 151.086 209.74 151.086 210.068C151.086 210.39 150.98 210.66 150.77 210.877C150.559 211.088 150.26 211.193 149.873 211.193C149.486 211.193 149.188 211.088 148.977 210.877C148.771 210.66 148.669 210.39 148.669 210.068ZM155.252 212.538L155.313 213.636C156.017 212.787 156.939 212.362 158.082 212.362C160.062 212.362 161.07 213.496 161.105 215.763V222.048H158.97V215.886C158.97 215.283 158.838 214.838 158.574 214.551C158.316 214.258 157.892 214.111 157.3 214.111C156.438 214.111 155.797 214.501 155.375 215.28V222.048H153.239V212.538H155.252ZM167.478 222.223C166.124 222.223 165.025 221.799 164.182 220.949C163.344 220.094 162.925 218.957 162.925 217.539V217.275C162.925 216.326 163.106 215.479 163.47 214.735C163.839 213.985 164.354 213.402 165.017 212.986C165.679 212.57 166.417 212.362 167.231 212.362C168.526 212.362 169.525 212.775 170.229 213.601C170.938 214.427 171.292 215.596 171.292 217.108V217.969H165.078C165.143 218.755 165.403 219.376 165.86 219.833C166.323 220.29 166.903 220.518 167.601 220.518C168.579 220.518 169.376 220.123 169.991 219.332L171.143 220.43C170.762 220.999 170.252 221.441 169.613 221.758C168.98 222.068 168.269 222.223 167.478 222.223ZM167.223 214.076C166.637 214.076 166.162 214.281 165.799 214.691C165.441 215.101 165.213 215.673 165.113 216.405H169.183V216.247C169.136 215.532 168.945 214.993 168.611 214.63C168.277 214.26 167.814 214.076 167.223 214.076ZM180.767 218.989L182.7 212.538H184.977L181.197 223.489C180.617 225.089 179.633 225.888 178.244 225.888C177.934 225.888 177.591 225.836 177.216 225.73V224.078L177.62 224.104C178.159 224.104 178.563 224.005 178.833 223.805C179.108 223.612 179.325 223.284 179.483 222.821L179.791 222.004L176.451 212.538H178.754L180.767 218.989ZM190.276 222.223C188.923 222.223 187.824 221.799 186.98 220.949C186.143 220.094 185.724 218.957 185.724 217.539V217.275C185.724 216.326 185.905 215.479 186.269 214.735C186.638 213.985 187.153 213.402 187.815 212.986C188.478 212.57 189.216 212.362 190.03 212.362C191.325 212.362 192.324 212.775 193.027 213.601C193.736 214.427 194.091 215.596 194.091 217.108V217.969H187.877C187.941 218.755 188.202 219.376 188.659 219.833C189.122 220.29 189.702 220.518 190.399 220.518C191.378 220.518 192.175 220.123 192.79 219.332L193.941 220.43C193.561 220.999 193.051 221.441 192.412 221.758C191.779 222.068 191.067 222.223 190.276 222.223ZM190.021 214.076C189.436 214.076 188.961 214.281 188.598 214.691C188.24 215.101 188.012 215.673 187.912 216.405H191.981V216.247C191.935 215.532 191.744 214.993 191.41 214.63C191.076 214.26 190.613 214.076 190.021 214.076ZM198.433 210.226V212.538H200.111V214.12H198.433V219.428C198.433 219.792 198.503 220.055 198.644 220.219C198.79 220.378 199.048 220.457 199.417 220.457C199.663 220.457 199.912 220.427 200.164 220.369V222.021C199.678 222.156 199.209 222.223 198.758 222.223C197.117 222.223 196.297 221.318 196.297 219.508V214.12H194.732V212.538H196.297V210.226H198.433ZM203.082 219.798C203.48 219.798 203.788 219.912 204.005 220.14C204.222 220.363 204.33 220.644 204.33 220.984C204.33 221.318 204.222 221.596 204.005 221.819C203.788 222.036 203.48 222.144 203.082 222.144C202.701 222.144 202.399 222.036 202.177 221.819C201.954 221.602 201.843 221.324 201.843 220.984C201.843 220.644 201.951 220.363 202.168 220.14C202.385 219.912 202.689 219.798 203.082 219.798Z" fill="#A5A5A5"/>
</g>
</g>
</g>
<defs>
<filter id="filter0_d" x="-346" y="-468" width="930" height="804" filterUnits="userSpaceOnUse" color-interpolation-filters="sRGB">
<feFlood flood-opacity="0" result="BackgroundImageFix"/>
<feColorMatrix in="SourceAlpha" type="matrix" values="0 0 0 0 0 0 0 0 0 0 0 0 0 0 0 0 0 0 127 0" result="hardAlpha"/>
<feOffset dy="2"/>
<feGaussianBlur stdDeviation="20"/>
<feColorMatrix type="matrix" values="0 0 0 0 0.270588 0 0 0 0 0.392157 0 0 0 0 0.819608 0 0 0 0.05 0"/>
<feBlend mode="normal" in2="BackgroundImageFix" result="effect1_dropShadow"/>
<feBlend mode="normal" in="SourceGraphic" in2="effect1_dropShadow" result="shape"/>
</filter>
<filter id="filter1_d" x="0" y="0" width="224.048" height="224.048" filterUnits="userSpaceOnUse" color-interpolation-filters="sRGB">
<feFlood flood-opacity="0" result="BackgroundImageFix"/>
<feColorMatrix in="SourceAlpha" type="matrix" values="0 0 0 0 0 0 0 0 0 0 0 0 0 0 0 0 0 0 127 0" result="hardAlpha"/>
<feOffset dy="2"/>
<feGaussianBlur stdDeviation="20"/>
<feColorMatrix type="matrix" values="0 0 0 0 0.207843 0 0 0 0 0.341176 0 0 0 0 0.823529 0 0 0 0.1 0"/>
<feBlend mode="normal" in2="BackgroundImageFix" result="effect1_dropShadow"/>
<feBlend mode="normal" in="SourceGraphic" in2="effect1_dropShadow" result="shape"/>
</filter>
<clipPath id="clip0">
<rect width="1440" height="1080" fill="white" transform="translate(-856 -758)"/>
</clipPath>
<clipPath id="clip1">
<rect x="-306" y="-430" width="850" height="724" rx="10" fill="white"/>
</clipPath>
<clipPath id="clip2">
<rect width="49.8775" height="49.8775" fill="white" transform="translate(120.369 52.5076)"/>
</clipPath>
<clipPath id="clip3">
<rect width="18.6312" height="18.6312" fill="white" transform="translate(141.03 126.706)"/>
</clipPath>
<clipPath id="clip4">
<rect width="26.3057" height="26.3057" fill="white" transform="translate(73.333 132.048)"/>
</clipPath>
</defs>
</svg>
